<svg width="206" height="333" viewBox="0 0 206 333" fill="none" xmlns="http://www.w3.org/2000/svg">
<path d="M8.40247 191.485C6.67596 195.039 5.05547 198.027 4.42696 201.98C3.76059 206.16 4.33615 210.853 5.77491 214.864C7.26667 219.012 15.5509 231.296 21.8284 225.531C25.1224 222.501 20.9651 217.23 20.3139 214.031C22.6765 215.54 25.1148 215.458 26.0311 212.387C26.705 210.12 25.145 207.276 25.0239 204.999C24.774 200.072 25.4252 195.343 27.8181 191C27.7424 191.275 27.6894 191.57 27.6061 191.845L8.40247 191.485" fill="#CCD1E2"/>
<path d="M51.5805 82.9067C44.2969 84.6938 21.7318 95.4747 10.589 122.231C4.48564 136.912 2.73071 183.54 4.42349 191.089C11.7614 191.471 18.7111 192.453 26.1889 192.771C31.0653 192.98 31.5933 193.863 32.8435 189.529C33.9073 185.812 34.1558 182.013 34.9867 178.175C40.1427 154.275 52.6676 131.825 56.8996 108.043C57.7459 103.293 59.2214 98.7606 58.3594 93.8529C57.979 91.7103 54.5079 83.1978 52.9161 84.1228L51.5805 82.9067Z" fill="#E3F3FE"/>
<path d="M41.8277 154.335C47.3234 139.09 53.6652 124.058 56.4441 108.451C57.2979 103.7 58.7727 99.1681 57.9034 94.2607C57.5308 92.1182 54.0611 83.6059 52.462 84.5306L50.8164 82.8783C43.5354 84.6648 31.0692 91.6625 23.4932 99.9056C11.7023 112.741 7.75125 128.691 7.89873 131.934C14.877 131.529 25.3251 135.733 28.9501 138.755C34.2206 143.154 38.6917 148.478 41.8277 154.335" fill="#CCD1E2"/>
<path d="M9.89819 123.042C9.89819 123.042 19.6376 124.231 24.2362 126.258C28.8424 128.285 37.4513 134.636 37.4513 134.636L38.6429 132.339C38.6429 132.339 32.3103 126.654 25.8708 124.5C15.7724 121.123 10.685 120.871 10.685 120.871C10.685 120.871 10.326 121.766 10.219 122.061C10.1274 122.309 9.89819 123.042 9.89819 123.042" fill="#537E91"/>
<path d="M18.9993 105.431C18.9993 105.431 26.1577 106.024 30.462 107.781C34.774 109.538 42.9528 114.769 42.9528 114.769L44.1421 113.012C44.1421 113.012 37.8352 107.925 32.4108 106.12C26.7255 104.229 20.5875 103.322 20.5875 103.322C20.5875 103.322 19.7742 104.364 19.5133 104.718C19.3829 104.894 18.9993 105.431 18.9993 105.431" fill="#537E91"/>
<path d="M33.8148 91.1851C33.8148 91.1851 37.0087 91.9311 39.8332 94.0932C42.6577 96.2546 46.8136 98.5526 46.8136 98.5526L47.9988 96.6608C47.9988 96.6608 44.5817 94.3628 41.7649 92.8766C38.9404 91.3896 36.4315 89.4831 36.4315 89.4831C36.4315 89.4831 35.3387 90.117 34.9846 90.353C34.6845 90.5484 33.8148 91.1851 33.8148 91.1851" fill="#537E91"/>
<path d="M201.146 42.8733C199.285 41.086 193.625 40.2967 191.106 39.4169C188.128 38.3787 184.562 36.4527 181.282 36.7623C176.651 48.0778 173.89 59.1971 164.256 68.8293C150.866 82.2117 129.763 85.3571 111.266 84.1235L100.135 133.989C101.797 136.208 112.53 134.477 115.724 134.304C122.83 133.918 130.084 131.998 136.982 130.339C150.113 127.181 162.092 118.997 171.319 109.959C185.904 95.6714 192.153 79.1995 198.229 61.4216C199.718 57.0608 204.392 45.9998 201.146 42.8733Z" fill="#E3F3FE"/>
<path d="M153.754 76.5993C141.207 83.3167 125.788 85.0628 111.716 84.1242L100.576 133.989C102.247 136.208 112.978 134.477 116.165 134.304C123.274 133.918 130.527 131.999 137.431 130.339C150.558 127.181 162.533 118.997 171.764 109.959C176.29 105.519 179.682 100.712 182.844 95.8773C179.759 94.4501 176.699 93.5542 173.733 91.9268C166.121 87.7544 159.908 82.2299 153.754 76.5993" fill="#CCD1E2"/>
<path d="M150.463 204.936C150.463 204.936 156.071 250.549 159.378 268.584C164.276 295.341 170.07 315.611 172.294 317.232L136.21 316.827C136.21 316.827 120.172 292.097 110.377 268.989C97.2909 238.128 96.5635 224.394 96.5635 224.394L111.713 200.476L150.463 204.936" fill="#CCD1E2"/>
<path d="M96.565 224.395L82.3114 316.421C82.3114 316.421 50.6786 316.016 50.231 314.8C49.7913 313.583 44.0035 304.665 37.7681 268.584C30.7892 228.213 31.9723 203.313 31.9723 203.313L76.076 198.043L96.565 224.395" fill="#CCD1E2"/>
<path d="M51.1237 82.0979C51.1237 82.0979 38.2077 125.071 34.2021 141.692C30.9377 155.207 31.9704 203.314 31.9704 203.314C31.9704 203.314 50.6824 205.746 63.1571 208.989C75.6317 212.232 96.5672 224.394 96.5672 224.394C96.5672 224.394 107.951 214.087 117.503 210.61C130.868 205.746 150.463 204.935 150.463 204.935C150.463 204.935 150.913 164.8 145.117 142.097C138.197 114.955 122.849 79.6652 122.849 79.6652L51.1237 82.0979" fill="#E3F3FE"/>
<path d="M64.0983 244.656C59.5516 244.339 53.6439 245.407 50.576 248.481C46.3124 252.746 45.1954 258.255 44.81 263.548C44.2043 271.869 46.3833 285.311 58.1199 286.974C62.5722 287.604 66.8909 285.826 70.0138 282.998C73.656 279.697 74.0492 274.706 74.6864 270.435C75.7405 263.337 75.3079 245.437 64.0983 244.656" fill="#E3F3FE"/>
<path d="M73.249 264.781C73.2804 265.793 72.2833 266.637 71.0271 266.666L50.3705 267.145C49.1064 267.174 48.07 266.377 48.0386 265.365C48.0151 264.353 49.0044 263.51 50.2684 263.481L70.9251 263.002C72.1813 262.973 73.2255 263.77 73.249 264.781Z" fill="#CCD1E2"/>
<path d="M71.4553 258.11C71.4788 259.122 70.6006 259.963 69.4873 259.988L51.2353 260.411C50.1298 260.437 49.1968 259.638 49.1733 258.626C49.1419 257.614 50.0279 256.773 51.1334 256.746L69.3854 256.324C70.4987 256.299 71.4239 257.097 71.4553 258.11" fill="#CCD1E2"/>
<path d="M68.8931 251.307C68.9244 252.319 68.2594 253.156 67.4143 253.175L53.4787 253.498C52.6336 253.518 51.9216 252.713 51.8982 251.701C51.8669 250.689 52.5319 249.853 53.377 249.834L67.3048 249.512C68.1576 249.492 68.8697 250.296 68.8931 251.307" fill="#CCD1E2"/>
<path d="M71.8236 272.532C71.8549 273.543 71.0079 274.383 69.9414 274.408L52.4055 274.814C51.3389 274.838 50.4528 274.038 50.4214 273.026C50.3979 272.015 51.237 271.175 52.3036 271.15L69.8394 270.744C70.906 270.72 71.8 271.52 71.8236 272.532Z" fill="#CCD1E2"/>
<path d="M68.3215 279.925C68.3528 280.937 67.7662 281.771 67.0076 281.789L54.6346 282.075C53.8838 282.093 53.2425 281.286 53.2191 280.275C53.1956 279.263 53.7822 278.429 54.533 278.411L66.9059 278.125C67.6567 278.108 68.298 278.913 68.3215 279.925" fill="#CCD1E2"/>
<path d="M144.611 241.811C140.878 241.719 136.266 243.075 134.257 246.291C131.462 250.753 131.42 256.3 131.922 261.595C132.717 269.92 136.551 283.213 146.31 284.291C150.001 284.7 153.231 282.715 155.315 279.742C157.751 276.271 157.299 271.277 157.148 266.988C156.914 259.859 153.792 242.035 144.611 241.811Z" fill="#E3F3FE"/>
<path d="M155.121 261.42C155.305 262.427 154.628 263.318 153.617 263.409L136.975 264.904C135.964 264.995 134.995 264.252 134.82 263.245C134.636 262.238 135.313 261.348 136.332 261.256L152.966 259.761C153.977 259.67 154.946 260.413 155.121 261.42Z" fill="#CCD1E2"/>
<path d="M152.633 254.861C152.809 255.868 152.233 256.749 151.333 256.83L136.631 258.151C135.738 258.232 134.863 257.48 134.688 256.473C134.504 255.465 135.088 254.584 135.98 254.504L150.69 253.183C151.583 253.101 152.45 253.853 152.633 254.861Z" fill="#CCD1E2"/>
<path d="M149.515 248.205C149.69 249.213 149.282 250.079 148.6 250.141L137.385 251.149C136.694 251.211 136.004 250.444 135.82 249.437C135.637 248.43 136.045 247.563 136.736 247.502L147.951 246.493C148.633 246.432 149.332 247.198 149.515 248.205Z" fill="#CCD1E2"/>
<path d="M153.472 276.761C153.655 277.768 153.305 278.628 152.704 278.683L142.732 279.579C142.123 279.634 141.489 278.862 141.314 277.855C141.13 276.847 141.481 275.987 142.081 275.931L152.053 275.036C152.654 274.981 153.296 275.753 153.472 276.761" fill="#CCD1E2"/>
<path d="M129.966 306.807C128.396 310.414 127.95 327.014 130.953 328.61C132.206 329.274 150.457 329.939 165.601 329.331C187.25 328.462 192.115 327.429 192.115 327.429C192.149 315.984 167.781 305.546 167.781 305.546L129.966 306.807" fill="#E3F3FE"/>
<path d="M190.755 13.4588C192.09 11.6451 188.208 8.03666 188.78 5.91069C189.395 3.6199 192.384 2.61211 194.455 4.3304C197.774 7.09196 200.261 11.6569 202.436 19.5852C205.919 32.2692 205.009 36.1624 204.611 41.0278C204.255 40.9971 180.921 35.8533 180.921 35.8533C179.716 33.4411 178.018 31.9617 175.436 30.2497C173.555 28.9991 170.904 28.6924 168.885 27.7082C166.268 26.4386 166.84 23.7732 169.439 23.0943C171.892 22.454 174.387 23.4334 176.77 23.0706C175.314 21.1063 174.266 18.9583 172.81 16.964C171.467 15.118 169.725 12.9723 169.994 10.7651C170.306 8.25427 173.096 7.05407 175.583 8.33707C177.403 9.27547 178.269 11.6372 179.274 13.1757C179.725 13.8713 180.279 14.5305 180.834 15.181C181.856 13.7608 179.318 10.4922 178.425 9.15636C177.299 7.47356 175.895 4.6513 177.853 3.10019C183.589 -1.42855 190.391 12.8035 190.755 13.4588" fill="#CCD1E2"/>
<path d="M155.166 269.219C155.341 270.225 154.79 271.105 153.929 271.183L139.801 272.452C138.941 272.529 138.097 271.776 137.922 270.768C137.738 269.761 138.298 268.882 139.158 268.804L153.277 267.535C154.138 267.458 154.982 268.211 155.166 269.219Z" fill="#CCD1E2"/>
<path d="M134.937 10.2725C119.516 -0.602866 95.1286 -0.167917 89.5238 0.0909115C84.3111 -0.134519 59.515 -0.565665 43.9768 10.5283C25.9698 23.3786 28.0799 52.7028 34.0934 62.974C40.5989 74.0634 59.098 80.5606 59.098 80.5606H88.5814V80.575L120.217 80.3906C120.217 80.3906 138.682 73.7863 145.113 62.6605C151.076 52.3537 153.011 23.0173 134.937 10.2725" fill="#E3F3FE"/>
<path d="M127.512 22.8347C119.952 16.2331 89.5556 16.233 89.5556 16.233C89.5556 16.233 59.151 16.2331 51.5827 22.8347C44.6808 28.8635 47.1981 59.0715 51.8953 60.6167C55.2846 61.7314 63.3136 60.4924 71.0299 59.6495C78.7463 58.8065 89.5556 58.51 89.5556 58.51C89.5556 58.51 100.349 58.8065 108.073 59.6495C115.79 60.4924 123.819 61.7314 127.208 60.6167C131.897 59.0715 134.422 28.8635 127.512 22.8347" fill="#5E73DD"/>
<path d="M51.5808 26.768C59.1434 20.1673 89.55 20.1673 89.55 20.1673C89.55 20.1673 119.957 20.1673 127.511 26.768C130.295 29.1974 131.551 35.5537 131.74 42.3779C131.97 34.1885 130.828 25.7285 127.511 22.8358C119.957 16.2344 89.55 16.2344 89.55 16.2344C89.55 16.2344 59.1434 16.2344 51.5808 22.8358C48.2716 25.7285 47.122 34.1885 47.3519 42.3779C47.549 35.5537 48.7971 29.1974 51.5808 26.768Z" fill="#4B60AD"/>
<path d="M35.5201 19.8258C35.5201 19.8258 37.0319 30.0045 37.3372 40.2873C37.9556 61.0601 34.3979 63.4662 34.3979 63.4662C34.3979 63.4662 27.9237 57.1429 27.9237 42.3786C27.9237 27.6074 35.5201 19.8258 35.5201 19.8258Z" fill="#537E91"/>
<path d="M143.985 19.8234C143.985 19.8234 142.435 29.994 142.085 40.2784C141.385 61.0495 144.943 63.4667 144.943 63.4667C144.943 63.4667 151.433 57.1645 151.491 42.3976C151.549 27.6314 143.985 19.8234 143.985 19.8234" fill="#537E91"/>
<path d="M56.2633 50.8531C52.3531 50.8524 51.1104 46.2473 50.9204 42.8854C50.6513 38.2724 51.15 33.325 54.6249 29.7104C57.0153 27.2237 65.8884 23.6883 76.495 23.6883C80.7851 23.6883 82.7956 25.8464 83.1439 27.8915C83.7217 31.2908 76.2179 32.3194 73.7167 32.846C69.6798 33.6975 64.5824 34.8903 63.6009 39.2649C62.7302 43.1886 63.775 48.391 58.7566 50.3323C57.8226 50.6925 56.9994 50.8531 56.2633 50.8531" fill="#869AE7"/>
<path d="M129.851 82.2628C129.835 83.5611 128.441 84.6012 126.744 84.5855L49.2585 83.9117C47.5532 83.8968 46.184 82.8329 46.1922 81.5346L46.2332 78.0107C46.2496 76.7124 47.6352 75.6731 49.3405 75.6873L126.826 76.3618C128.531 76.3767 129.9 77.4406 129.884 78.7389L129.851 82.2628Z" fill="#537E91"/>
<path d="M116.611 83.3144L93.8913 151.828L87.6565 152.639L59.5914 82.5034L51.5693 82.9089L84.0902 161.557L98.796 160.746L123.735 83.3144H116.611" fill="#537E91"/>
<path d="M134.43 171.692C134.43 175.947 130.637 179.395 125.965 179.395C121.292 179.395 117.5 175.947 117.5 171.692C117.5 167.438 121.292 163.989 125.965 163.989C130.637 163.989 134.43 167.438 134.43 171.692Z" fill="#5E73DD"/>
<path d="M155.114 204.458C154.721 199.233 150.167 199.593 150.167 199.593C150.167 199.593 132.946 200.674 116.903 206.981C104.946 211.684 96.5649 224.393 96.5649 224.393L96.5063 225.54C96.5063 225.54 103.876 217.774 126.604 212.927C139.28 210.224 151.354 210.584 151.354 210.584C151.354 210.584 155.515 209.684 155.114 204.458" fill="#537E91"/>
<path d="M31.9565 199.053C31.9565 199.053 51.5581 198.152 68.3938 204.819C87.0361 212.205 96.5651 224.395 96.5651 224.395L96.5092 225.542C96.5092 225.542 79.4817 216.892 67.2027 213.469C48.4964 208.25 32.1564 208.964 32.1564 208.964C32.1564 208.964 27.208 209.865 26.8163 204.64C26.4166 199.414 31.9565 199.053 31.9565 199.053" fill="#537E91"/>
<path d="M179.914 100.203C177.855 99.5528 167.045 95.9489 162.044 90.5801C157.034 85.2074 153.156 78.5127 152.458 77.2703C151.701 77.6489 150.936 78.0111 150.17 78.3548L159.866 91.6614C164.655 96.661 175.619 101.945 177.864 103C178.57 102.075 179.25 101.142 179.914 100.203Z" fill="#537E91"/>
<path d="M149.377 99.5877C145.116 94.2235 141.663 83.6469 141.014 81.5784C140.324 81.7662 139.633 81.9425 138.934 82.1096C139.237 83.673 140.972 91.5433 147.002 99.7677C153.445 108.568 163.34 116.043 164.165 116.66C164.873 116.102 165.563 115.537 166.245 114.963C164.839 113.889 154.177 105.642 149.377 99.5877Z" fill="#537E91"/>
<path d="M135.711 101.031C139.977 110.655 147.543 124.706 148.485 126.44C149.593 125.928 150.685 125.386 151.759 124.816C150.56 122.802 141.41 107.401 138.085 100.671C134.777 93.9783 131.602 84.82 131.169 83.5468C130.386 83.6522 129.611 83.7462 128.828 83.8303C129.419 85.4357 132.519 93.8289 135.711 101.031" fill="#537E91"/>
<path d="M205.428 44.0269C205.194 45.8054 203.418 47.0729 201.459 46.8592L179.844 44.489C177.885 44.2745 176.49 42.6592 176.724 40.8806L177.27 36.7666C177.504 34.9881 179.281 33.7198 181.239 33.9343L202.863 36.3036C204.813 36.519 206.208 38.1335 205.974 39.9121L205.428 44.0269" fill="#537E91"/>
<path d="M33.9905 192.263C33.8991 194.052 31.9504 195.427 29.6439 195.333L4.03717 194.299C1.72312 194.205 -0.0809315 192.678 0.00280066 190.889L0.20834 186.749C0.292072 184.959 2.24072 183.585 4.55477 183.678L30.1616 184.713C32.4757 184.806 34.2797 186.332 34.1883 188.122L33.9905 192.263" fill="#537E91"/>
<path d="M46.8189 306.932C46.8189 306.932 31.666 308.967 28.1024 328.427C28.1024 328.427 36.4226 332.482 63.4434 332.482C82.7486 332.482 88.6904 328.698 88.6904 328.698C90.0744 324.4 84.236 305.723 84.236 305.723C84.236 305.723 81.8577 309.216 68.0012 309.216C54.1369 309.216 46.8189 306.932 46.8189 306.932" fill="#E3F3FE"/>
<path d="M149.719 307.888C149.719 311.918 147.256 315.186 144.219 315.186C141.191 315.186 138.736 311.918 138.736 307.888C138.736 303.857 141.191 300.59 144.219 300.59C147.256 300.59 149.719 303.857 149.719 307.888Z" fill="#537E91"/>
<path d="M82.8967 313.413C82.8967 317.444 81.6627 320.711 80.1518 320.711C78.633 320.711 77.399 317.444 77.399 313.413C77.399 309.383 78.633 306.116 80.1518 306.116C81.6627 306.116 82.8967 309.383 82.8967 313.413Z" fill="#537E91"/>
</svg>
